<?xml version="1.0" encoding="UTF-8" standalone="no"?>
<!-- Generator: Adobe Illustrator 19.2.1, SVG Export Plug-In . SVG Version: 6.00 Build 0)  -->

<svg
   version="1.1"
   id="Layer_1"
   x="0px"
   y="0px"
   viewBox="0 0 1056 268.79999"
   xml:space="preserve"
   sodipodi:docname="astrazeneca-seeklogo Gris.com.svg"
   inkscape:version="1.1 (c68e22c387, 2021-05-23)"
   width="11in"
   height="2.8in"
   xmlns:inkscape="http://www.inkscape.org/namespaces/inkscape"
   xmlns:sodipodi="http://sodipodi.sourceforge.net/DTD/sodipodi-0.dtd"
   xmlns="http://www.w3.org/2000/svg"
   xmlns:svg="http://www.w3.org/2000/svg"><defs
   id="defs1973" /><sodipodi:namedview
   id="namedview1971"
   pagecolor="#ffffff"
   bordercolor="#666666"
   borderopacity="1.0"
   inkscape:pageshadow="2"
   inkscape:pageopacity="0.0"
   inkscape:pagecheckerboard="0"
   showgrid="false"
   inkscape:zoom="0.79541816"
   inkscape:cx="509.78741"
   inkscape:cy="443.66614"
   inkscape:window-width="1857"
   inkscape:window-height="1057"
   inkscape:window-x="-8"
   inkscape:window-y="-8"
   inkscape:window-maximized="1"
   inkscape:current-layer="Layer_1"
   units="in"
   inkscape:document-units="in" />
<style
   type="text/css"
   id="style1957">
	.Arched_x0020_Green{fill:url(#SVGID_1_);stroke:#FFFFFF;stroke-width:0.25;stroke-miterlimit:1;}
	.st0{fill:#860052;}
	.st1{fill:#FCAF17;}
</style>
<linearGradient
   id="SVGID_1_"
   gradientUnits="userSpaceOnUse"
   x1="0"
   y1="113.877"
   x2="0.70709997"
   y2="113.1699">
	<stop
   offset="0"
   style="stop-color:#28B45F"
   id="stop1959" />
	<stop
   offset="0.9831"
   style="stop-color:#183418"
   id="stop1961" />
</linearGradient>
<g
   id="g1968"
   transform="matrix(3.6669556,0,0,3.6669556,-103.59034,-48.737824)">
	<path
   class="st0"
   d="M 39.5,70.6 44.2,58 48.6,70.7 h -9.1 z m 13.7,12.8 h 4.3 L 46.3,52.9 H 42.1 L 30.5,83.4 h 4.3 L 38.2,74 h 11.6 z m 20.3,-6.5 c 0,2.5 -2,3.8 -5.5,3.8 -2.8,0 -4.6,-0.8 -5.7,-2.6 l -4.1,0.7 c 1.6,3.3 4.9,4.8 9.6,4.8 6.4,0 9.7,-3.5 9.7,-7.3 0,-4.8 -4.5,-6.1 -9.6,-7.2 -2.5,-0.5 -5.4,-1.4 -5.4,-3.6 0,-1.6 1.5,-3.4 4.6,-3.4 3.1,0 5,2.1 5.3,3 L 76,63.6 c -1.7,-3.2 -5,-4.4 -8.4,-4.4 -5.4,0 -8.9,2.6 -8.9,6.8 0,4.8 4.1,5.7 8.1,6.6 3.4,0.9 6.7,1.7 6.7,4.3 z m 12.6,-24 -4,1.7 v 5.6 h -3.7 v 3.2 h 3.7 v 14.9 c -0.1,3 -0.1,5.2 4.5,5.2 1.5,0 3.1,-0.3 3.8,-0.4 V 80 c -0.8,0.2 -1.8,0.5 -2.5,0.5 -1.7,0 -1.7,-1.2 -1.7,-3.9 V 63.4 h 4.2 v -3.2 h -4.2 v -7.3 z m 7.7,7.3 v 23.2 h 3.9 V 72.7 c 0,-2 -0.1,-4.3 1,-6 1.3,-2.1 3.1,-2.8 7,-2.9 v -4 c -1.6,0.1 -5.7,0.1 -7.9,4.5 v -4.1 z m 34.8,-7.3 v 3.8 H 146 l -17.3,22.8 v 4 H 151 v -3.7 h -17.7 l 17.3,-23 V 53 h -22 z m 46.8,7.3 v 23.2 h 3.9 V 70.2 c 0,-1.7 0,-3.5 1.7,-5.2 1.2,-1.2 2.7,-1.8 4.4,-1.8 2.1,0 4.3,1 5,3.2 0.2,0.8 0.2,1.5 0.2,3.8 v 13.1 h 3.9 V 69.7 c 0,-2 0,-3.4 -0.4,-4.7 -1.1,-3.8 -4.7,-5.3 -7.6,-5.3 -1.4,0 -5.1,0.3 -7.2,4.1 v -3.5 h -3.9 z m 60.4,17.6 c -0.8,1.6 -2.3,3 -5.4,3 -2.6,0 -7,-1.6 -7,-9.3 0,-2.1 0.4,-9.3 6.8,-9.3 3.2,0 4.7,1.8 5.4,3.3 l 3.6,-1.5 c -2.2,-3.7 -6.3,-4.6 -9.2,-4.6 -7.4,0 -11,5.9 -11,12.5 0,5.7 3.1,12 11.3,12 4.7,0 7.4,-2.3 8.8,-4.6 z m -79.2,-8.4 h 12.3 c -0.3,-6.1 -3.8,-7.1 -6.2,-7.1 -3.3,0 -5.6,2.4 -6.1,7.1 z m 15.5,9.6 c -1.3,2.3 -3.9,4.8 -8.9,4.8 -6.8,0 -10.8,-4.6 -10.8,-12.4 0,-8.7 5.7,-12 10.6,-12 4.3,0 8.3,2.4 9.7,8.2 0.4,2 0.4,3.7 0.4,4.7 h -16.6 c -0.1,3.9 1.5,8.8 7,8.7 2.2,0 3.8,-1.1 4.8,-2.6 z m 28.8,-9.6 h 12.3 c -0.3,-6.1 -3.8,-7.1 -6.2,-7.1 -3.4,0 -5.7,2.4 -6.1,7.1 z m 15.4,9.6 c -1.3,2.3 -3.9,4.8 -8.9,4.8 -6.8,0 -10.8,-4.6 -10.8,-12.4 0,-8.7 5.7,-12 10.6,-12 4.3,0 8.3,2.4 9.7,8.2 0.4,2 0.4,3.7 0.4,4.7 h -16.7 c -0.1,3.9 1.5,8.8 7,8.7 2.2,0 3.8,-1.1 4.8,-2.6 z m 44.3,4.4 h -4.1 c 0,0 -0.4,-1.6 -0.5,-3.4 -1.2,1.2 -3.4,3.7 -7.8,3.7 -4.5,0 -7.8,-2.7 -7.8,-6.6 0,-1.2 0.3,-2.5 1,-3.5 1.3,-2 3.8,-3.5 10.7,-4.1 l 3.7,-0.3 v -0.6 c 0,-2.4 0,-6.4 -5.2,-6.4 -3.2,0 -4.4,1.6 -4.7,3 l -3.6,-1.5 c 0.1,-0.1 0.1,-0.3 0.2,-0.4 1.4,-2.5 4.1,-4.1 8,-4.1 2.1,0 4.9,0.5 6.7,2 2.6,2 2.5,5.8 2.5,5.8 l 0.2,11.9 c 0,0.1 0.2,3.5 0.7,4.5 z M 255.2,77 c 0.6,-1.3 0.6,-1.8 0.6,-5.2 -1.5,0.2 -3.6,0.5 -6.1,1.1 -4.3,0.9 -5,2.6 -5,4.2 0,1.9 1.5,3.4 4.4,3.4 2.7,0 5,-1.1 6.1,-3.5 z m -129.3,6.4 h -4 c 0,0 -0.4,-1.6 -0.5,-3.4 -1.2,1.2 -3.4,3.7 -7.8,3.7 -4.5,0 -7.9,-2.7 -7.9,-6.6 0,-1.2 0.3,-2.5 1,-3.5 1.3,-2 3.8,-3.5 10.7,-4.1 l 3.7,-0.3 v -0.6 c 0,-2.4 0,-6.4 -5.2,-6.4 -3.3,0 -4.4,1.6 -4.7,3 l -3.6,-1.5 c 0.1,-0.1 0.1,-0.3 0.2,-0.4 1.4,-2.5 4.1,-4.1 8,-4.1 2.1,0 4.9,0.5 6.7,2 2.6,2 2.5,5.8 2.5,5.8 l 0.1,11.9 c 0.1,0.1 0.3,3.5 0.8,4.5 z M 120.6,77 c 0.6,-1.3 0.6,-1.8 0.6,-5.2 -1.5,0.2 -3.6,0.5 -6.1,1.1 -4.3,0.9 -5,2.6 -5,4.2 0,1.9 1.5,3.4 4.4,3.4 2.6,0 4.9,-1.1 6.1,-3.5 z"
   id="path1964"
   style="fill:#dde2fa;fill-opacity:1" />
	<path
   class="st1"
   d="m 285.9,63.9 c -0.6,0.4 -1.2,0.8 -1.8,1.2 -7,-3.9 -22,-11.4 -23.3,-12 -1.4,-0.7 -3.8,-1.7 -3.5,-4 0.4,-3.2 6.1,-10.3 8.5,-13.3 13,-15.8 18.8,-20.7 22.6,-20.2 4.1,0.5 6.4,4.8 6.7,24.6 -2.3,-0.7 -4.8,-1.4 -7.5,-2.1 -0.2,-2.9 -0.8,-7.2 -1,-8.7 -0.2,-1.7 -0.6,-2.3 -1.2,-2.4 -0.8,-0.1 -2.7,1.7 -4.4,3.5 -0.8,0.8 -3,3 -5.4,5.5 -2,-0.1 -3.4,0.3 -4.1,1.3 -0.6,0.8 -0.7,1.9 -0.4,3.3 -1.3,1.3 -2.4,2.4 -3.2,3.2 -2.7,2.7 -5.6,4.9 -5.7,6 -0.1,0.9 1.2,1.8 3.2,3 4.6,2.5 16.3,8.9 20.5,11.1 z m 18.2,-19.8 c -4.6,-1.6 -15.9,-5.8 -27.8,-7.4 -4.1,-0.5 -5.7,0.9 -4.1,4.8 1.7,3.9 6,10.3 10.5,15.2 4.5,4.8 9.4,6.1 11,-1.3 0.1,-0.3 0.1,-0.5 0.2,-0.8 0.4,-1.9 0.7,-3.8 0.8,-5.4 -2,-0.9 -4.3,-1.9 -6.5,-2.8 0.1,1.7 0.3,4.7 0.4,6.9 0,0.3 0,0.6 0,0.8 0.1,3.7 -1.1,3.7 -3.2,2.2 -2.4,-1.7 -9.9,-11.6 -10.8,-16 0,-0.3 0.1,-0.3 0.2,-0.2 0.1,0 0.1,0 0.2,0.1 0,0 0,0 0,0 v 0 c 1.7,0.7 7.3,2.9 13,5.3 2.3,1 4.6,1.9 6.6,2.9 2,0.9 3.8,1.8 5.2,2.5 2.5,1.3 3.4,2.2 2.4,3.3 -5.1,5.2 -23.1,12.6 -29.3,21.8 0,0 0,0 -0.1,0.1 -0.1,0.1 -0.1,0.2 -0.2,0.3 0,0 0,0.1 -0.1,0.1 -0.3,0.6 -0.7,1.5 -0.9,2.7 -0.3,2 0.8,3.8 3.7,4.6 0.7,0.2 1.5,0.4 2.4,0.5 0.2,0 0.3,0 0.5,0 5.5,0.3 19.9,-2.9 24.2,-4.8 4.5,-2 3.2,-4 1.9,-5 -1,-0.8 -6,-3.6 -8.4,-4.9 -0.7,0.4 -1.2,0.7 -1.8,1.2 4.1,2.5 5.8,3.8 6.8,4.5 0.4,0.3 0.2,0.6 -0.4,0.7 -0.1,0 -0.3,0 -0.4,0 -3.9,0.3 -11.4,0.8 -14.9,1 -0.5,0 -1.1,0.1 -1.4,0.1 0.9,-0.8 1.8,-1.5 2.3,-1.9 7.5,-5.3 20,-12.7 23.7,-15.9 2.8,-2.5 10.2,-9.7 -5.7,-15.2 z"
   id="path1966"
   style="fill:#e7ebfc;fill-opacity:1" />
</g>
</svg>
