<?xml version="1.0" encoding="UTF-8" standalone="no"?>
<svg
   aria-hidden="true"
   role="img"
   width="11.999733"
   height="11.273914"
   preserveAspectRatio="xMidYMid meet"
   viewBox="0 0 11.999733 11.273914"
   version="1.1"
   id="svg1214"
   sodipodi:docname="heart.svg"
   inkscape:version="1.1 (c68e22c387, 2021-05-23)"
   xmlns:inkscape="http://www.inkscape.org/namespaces/inkscape"
   xmlns:sodipodi="http://sodipodi.sourceforge.net/DTD/sodipodi-0.dtd"
   xmlns="http://www.w3.org/2000/svg"
   xmlns:svg="http://www.w3.org/2000/svg">
  <defs
     id="defs1218" />
  <sodipodi:namedview
     id="namedview1216"
     pagecolor="#ffffff"
     bordercolor="#666666"
     borderopacity="1.0"
     inkscape:pageshadow="2"
     inkscape:pageopacity="0.0"
     inkscape:pagecheckerboard="0"
     showgrid="false"
     fit-margin-top="0"
     fit-margin-left="0"
     fit-margin-right="0"
     fit-margin-bottom="0"
     inkscape:zoom="32"
     inkscape:cx="2.3761304"
     inkscape:cy="6.2555249"
     inkscape:window-width="1857"
     inkscape:window-height="1057"
     inkscape:window-x="-8"
     inkscape:window-y="-8"
     inkscape:window-maximized="1"
     inkscape:current-layer="svg1214" />
  <path
     fill="#3454d2"
     fill-rule="evenodd"
     d="m 6.490218,10.919756 c 10.922,-7.5379999 2.79,-13.3069999 -0.49,-9.9339999 -3.281,-3.373 -11.413,2.396 -0.49,9.9339999 0.504905,0.354158 0.203476,0.131963 0.504905,0.354158 0.475095,-0.354158 0,0 0.474095,-0.354158 z m -1.764,-9.6509999 c -1.167,-0.61 -2.8,-0.142 -3.454,1.135 -0.237,0.463 -0.36000005,1.08 -0.202,1.85 0.055,0.27 0.467,0.197 0.527,-0.071 0.285,-1.256 1.177,-2.462 2.989,-2.528 0.234,-0.008 0.348,-0.278 0.14,-0.386 z"
     id="path1212"
     sodipodi:nodetypes="cccccccccccc" />
</svg>
