<?xml version="1.0" encoding="UTF-8" standalone="no"?>
<svg
   width="11in"
   height="3.5in"
   viewBox="-2.4 -2.4 1697.4053 551.54716"
   version="1.1"
   id="svg1698"
   sodipodi:docname="Moderna_logo Gris.svg"
   inkscape:version="1.1 (c68e22c387, 2021-05-23)"
   xmlns:inkscape="http://www.inkscape.org/namespaces/inkscape"
   xmlns:sodipodi="http://sodipodi.sourceforge.net/DTD/sodipodi-0.dtd"
   xmlns="http://www.w3.org/2000/svg"
   xmlns:svg="http://www.w3.org/2000/svg">
  <defs
     id="defs1702" />
  <sodipodi:namedview
     id="namedview1700"
     pagecolor="#ffffff"
     bordercolor="#666666"
     borderopacity="1.0"
     inkscape:pageshadow="2"
     inkscape:pageopacity="0.0"
     inkscape:pagecheckerboard="0"
     showgrid="false"
     inkscape:zoom="0.64619565"
     inkscape:cx="311.0513"
     inkscape:cy="343.5492"
     inkscape:window-width="1857"
     inkscape:window-height="1057"
     inkscape:window-x="-8"
     inkscape:window-y="-8"
     inkscape:window-maximized="1"
     inkscape:current-layer="svg1698"
     units="in"
     inkscape:document-units="in" />
  <g
     id="g1020"
     transform="translate(1.5429677,78.609247)">
    <g
       stroke-width="4.6"
       stroke-linecap="round"
       id="g1694"
       style="fill:#e7eaf3;fill-opacity:1;stroke:#eaeaf3;stroke-opacity:1"
       transform="matrix(4.7330336,0,0,4.7330336,-15.469192,0)">
      <path
         d="M 1,80 H 20"
         stroke="#a6dff9"
         id="path1670"
         style="fill:#e7eaf3;fill-opacity:1;stroke:#eaeaf3;stroke-opacity:1" />
      <path
         d="M 31,80 H 50"
         stroke="#93daf8"
         id="path1672"
         style="fill:#e7eaf3;fill-opacity:1;stroke:#eaeaf3;stroke-opacity:1" />
      <path
         d="M 61,80 H 80"
         stroke="#7ed4f7"
         id="path1674"
         style="fill:#e7eaf3;fill-opacity:1;stroke:#eaeaf3;stroke-opacity:1" />
      <path
         d="m 91,80 h 19"
         stroke="#6bcff6"
         id="path1676"
         style="fill:#e7eaf3;fill-opacity:1;stroke:#eaeaf3;stroke-opacity:1" />
      <path
         d="m 121,80 h 19"
         stroke="#52cbf5"
         id="path1678"
         style="fill:#e7eaf3;fill-opacity:1;stroke:#eaeaf3;stroke-opacity:1" />
      <path
         d="m 151,80 h 19"
         stroke="#39c6f4"
         id="path1680"
         style="fill:#e7eaf3;fill-opacity:1;stroke:#eaeaf3;stroke-opacity:1" />
      <path
         d="m 181,80 h 19"
         stroke="#20c2f3"
         id="path1682"
         style="fill:#e7eaf3;fill-opacity:1;stroke:#eaeaf3;stroke-opacity:1" />
      <path
         d="m 211,80 h 19"
         stroke="#04bef2"
         id="path1684"
         style="fill:#e7eaf3;fill-opacity:1;stroke:#eaeaf3;stroke-opacity:1" />
      <path
         d="m 241,80 h 19"
         stroke="#00baf2"
         id="path1686"
         style="fill:#e7eaf3;fill-opacity:1;stroke:#eaeaf3;stroke-opacity:1" />
      <path
         d="m 271,80 h 19"
         stroke="#00b6f1"
         id="path1688"
         style="fill:#e7eaf3;fill-opacity:1;stroke:#eaeaf3;stroke-opacity:1" />
      <path
         d="m 301,80 h 19"
         stroke="#00b3f0"
         id="path1690"
         style="fill:#e7eaf3;fill-opacity:1;stroke:#eaeaf3;stroke-opacity:1" />
      <path
         d="m 331,80 h 19"
         stroke="#00afef"
         id="path1692"
         style="fill:#e7eaf3;fill-opacity:1;stroke:#eaeaf3;stroke-opacity:1" />
    </g>
    <path
       d="M 766.42796,0 V 115.95932 A 94.660672,94.660672 0 0 0 685.96639,73.362021 c -29.34481,0 -53.95658,10.412673 -74.78194,31.238029 a 104.12674,104.12674 0 0 0 -30.29141,75.25522 c 0,30.29142 10.41267,55.3765 30.76472,76.20185 19.87875,21.29865 44.96382,31.71133 73.36203,31.71133 16.56561,0 31.71131,-3.78643 45.43711,-9.93938 13.2525,-7.09955 25.55838,-17.03892 36.44437,-30.29141 v 35.02444 h 26.03168 V 0 Z M 80.138087,70.995504 c -14.199101,0 -28.398202,3.786427 -41.650696,11.832584 A 99.393706,99.393706 0 0 0 10.562493,111.69959 V 76.201841 H -15.469192 V 282.5621 h 26.031685 v -87.56112 c 0,-26.03168 2.83982,-44.96382 7.572854,-57.74301 a 66.26247,66.26247 0 0 1 23.191865,-29.81811 c 10.412673,-7.09955 21.771954,-10.885974 33.604538,-10.885974 10.412676,0 19.405435,2.83982 27.45159,8.046164 a 43.543909,43.543909 0 0 1 16.09231,21.29864 c 2.83983,9.46607 4.25974,26.03168 4.25974,51.11677 V 282.5621 h 26.03169 v -80.46156 c 0,-29.81811 2.36651,-51.11677 7.09954,-63.89595 4.73304,-12.3059 12.7792,-22.71857 23.19187,-30.29143 10.41267,-7.57285 21.77195,-11.359274 34.55114,-11.359274 10.41268,0 18.93214,2.366517 26.505,7.572854 7.57284,4.73304 12.77918,11.83258 16.09231,19.87874 3.31312,8.51946 4.73303,23.66517 4.73303,45.91042 v 112.6462 h 26.50498 V 170.38921 c 0,-25.55838 -2.36651,-45.43712 -7.57284,-58.21632 A 63.895953,63.895953 0 0 0 218.34267,70.995504 c -14.67241,0 -28.39821,4.733034 -41.6507,12.77919 -12.77919,8.519461 -23.66516,20.825356 -32.65793,36.917666 -3.78643,-11.83258 -8.99276,-21.298654 -14.1991,-27.924901 A 56.796404,56.796404 0 0 0 108.06298,77.148448 C 99.070224,72.888718 90.077456,70.995504 79.664783,70.995504 Z m 356.397423,0 c -30.76471,0 -56.32309,11.35928 -75.72853,34.551146 a 108.85978,108.85978 0 0 0 -28.3982,74.30862 c 0,28.39821 9.46607,53.95659 29.34481,75.72855 18.93213,21.29864 44.01721,32.18463 74.30862,32.18463 a 94.660672,94.660672 0 0 0 74.30864,-32.65794 108.85978,108.85978 0 0 0 28.8715,-75.25524 c 0,-28.3982 -8.99276,-53.48327 -27.4516,-74.78192 A 97.027189,97.027189 0 0 0 436.06221,70.522201 Z m 508.80112,0 c -33.13123,0 -59.63623,12.77919 -79.98827,38.810876 -15.61901,20.35204 -23.19186,43.54391 -23.19186,70.04889 0,27.92491 9.46606,52.53668 27.9249,74.78194 a 94.660672,94.660672 0 0 0 76.67514,33.13124 101.76022,101.76022 0 0 0 70.99546,-27.4516 c 9.4661,-8.51946 17.9856,-20.35204 24.6119,-34.55114 l -21.2987,-11.83259 c -8.0462,13.7258 -15.1458,23.66517 -22.24532,29.3448 a 83.301391,83.301391 0 0 1 -54.42986,19.87874 c -20.82534,0 -38.81088,-7.57284 -53.00998,-22.71855 -14.6724,-15.61901 -22.24525,-35.02446 -22.71855,-59.16292 h 180.80181 c 0,-28.3982 -7.5728,-52.06337 -22.2452,-70.99551 A 98.447099,98.447099 0 0 0 945.33663,70.995504 Z m 221.50597,0 c -9.9394,0 -19.4054,2.83982 -28.3982,8.519461 a 94.660672,94.660672 0 0 0 -26.5049,26.978295 V 75.728538 h -27.4517 V 282.0888 h 27.4517 v -69.10229 c 0,-35.97105 1.8932,-60.10952 5.2062,-71.46881 4.7331,-15.61901 10.886,-26.97828 18.9322,-34.07784 a 38.810875,38.810875 0 0 1 26.505,-10.885974 c 3.3131,0 8.0461,0.946607 14.199,3.786424 l 14.1992,-22.718558 c -8.9928,-4.733034 -16.5656,-7.099551 -24.1385,-7.099551 z m 156.1901,0 c -15.1457,0 -28.8715,3.313124 -41.6507,10.412674 A 108.85978,108.85978 0 0 0 1246.8309,113.1195 V 75.728538 h -26.0317 V 282.0888 h 26.0317 v -75.72853 c 0,-26.9783 1.4198,-45.91043 3.7864,-56.32311 3.7864,-15.619 12.3059,-28.3982 24.6117,-39.28417 12.7792,-10.885981 26.9784,-16.092318 42.5973,-16.092318 14.1992,0 25.0851,3.786427 33.1313,10.412678 a 52.06337,52.06337 0 0 1 17.5122,30.76471 c 2.3665,8.04616 3.3131,23.66517 3.3131,47.80364 v 98.4471 h 26.0318 V 176.54216 c 0,-28.3982 -2.8399,-49.22356 -8.5196,-62.47605 -5.6796,-13.25249 -14.199,-23.665168 -26.0316,-31.711326 a 70.995504,70.995504 0 0 0 -40.2308,-11.832583 z m 222.4526,0 c -27.925,0 -52.0634,10.412674 -71.9421,31.238016 a 106.96656,106.96656 0 0 0 -30.2915,76.20185 108.85978,108.85978 0 0 0 29.8182,77.14845 97.500493,97.500493 0 0 0 151.4571,-8.99277 v 35.97105 h 25.5583 V 75.728538 h -25.0851 V 113.5928 a 99.393706,99.393706 0 0 0 -35.0244,-32.657926 89.927638,89.927638 0 0 0 -43.5439,-9.93937 z M 945.33663,96.080582 c 12.30589,0 23.66516,2.839821 34.07785,8.046158 11.35927,4.73304 19.87875,11.83258 26.50492,20.35205 6.153,8.51946 11.3594,19.40543 15.1458,33.60454 H 871.028 c 5.67964,-18.93214 13.2525,-33.13124 23.66517,-42.59731 14.1991,-12.77919 31.23803,-18.932134 50.64346,-18.932134 z m 602.51517,0 c 22.2453,0 40.7041,8.046158 56.3231,24.138468 14.6725,16.09232 22.2453,35.97106 22.2453,60.10953 0,15.61902 -3.3132,29.81811 -9.4661,42.124 a 79.041662,79.041662 0 0 1 -68.629,40.70408 c -14.1991,0 -27.4516,-3.78642 -39.7575,-10.88597 a 87.561122,87.561122 0 0 1 -28.8714,-114.0661 76.675145,76.675145 0 0 1 68.1556,-41.650704 z M 435.58891,97.027189 c 21.29865,0 39.75748,8.046161 54.90319,24.138471 a 88.034425,88.034425 0 0 1 12.77919,100.81362 74.781931,74.781931 0 0 1 -67.20908,40.70408 74.781931,74.781931 0 0 1 -67.20908,-40.70408 88.034425,88.034425 0 0 1 -10.41267,-41.6507 c 0,-23.19186 7.57286,-42.59731 22.71857,-59.16292 15.1457,-16.09231 33.13123,-24.138471 54.90318,-24.138471 z m 251.79739,1.41991 a 80.461571,80.461571 0 0 1 80.46157,82.828091 85.194605,85.194605 0 0 1 -10.41267,42.12399 83.774694,83.774694 0 0 1 -70.52221,40.2308 80.461571,80.461571 0 0 1 -69.57559,-41.6507 84.247998,84.247998 0 0 1 0,-82.35479 79.041662,79.041662 0 0 1 70.0489,-41.177391 z M 1688.423,92.294155 h 3.7864 c 1.8932,0 3.313,0 3.7864,-0.946606 0.9466,0 1.4198,-0.946607 1.4198,-1.893214 l -0.9466,-1.41991 c 0,-0.946607 0,-0.946607 -0.9466,-1.41991 h -7.0994 z m -2.84,10.885975 V 84.247998 h 11.3594 c 1.4199,0.473303 2.3665,1.41991 2.8398,2.366517 l 0.9466,2.366517 c 0,1.893213 -0.9466,2.83982 -1.4199,3.786427 a 9.4660672,9.4660672 0 0 1 -4.7331,1.893213 l 1.8932,0.946607 2.8399,3.786427 2.3665,3.786424 h -3.7864 l -1.42,-3.313121 -3.313,-4.733033 h -4.2598 v 8.046154 z m 7.573,-25.085075 c -2.3666,0 -4.733,0.473303 -7.0996,2.366516 -2.3666,0.946607 -4.2598,2.83982 -5.2064,5.206337 a 14.1991,14.1991 0 0 0 0,15.145712 c 0.9466,2.36651 2.8398,4.25973 5.2064,5.20633 2.3666,1.89321 4.733,2.36652 7.0996,2.36652 2.8398,0 5.2063,-0.47331 7.5728,-2.36652 2.3665,-0.9466 4.733,-2.83982 5.6796,-5.20633 0.9466,-2.366521 1.8933,-4.733038 1.8933,-7.572858 0,-2.366517 -0.9467,-4.733034 -1.8933,-7.572854 a 14.1991,14.1991 0 0 0 -5.6796,-5.206337 c -2.3665,-1.893213 -4.733,-2.366516 -7.5728,-2.366516 z m 0,-2.366517 c 3.313,0 6.1529,0.473303 8.9927,1.893214 2.8398,1.41991 4.733,3.786426 6.6262,6.626246 1.8932,2.83982 2.3666,5.67964 2.3666,9.466067 0,2.839821 -0.4734,5.679641 -2.3666,8.519455 -1.4199,2.83983 -3.7864,4.73304 -6.6262,6.62626 a 18.932134,18.932134 0 0 1 -8.9927,2.36651 c -2.8398,0 -5.6797,-0.94661 -8.5196,-2.36651 -2.8398,-1.41992 -4.733,-3.78643 -6.6262,-6.62626 -1.4199,-2.839814 -2.3665,-5.679634 -2.3665,-8.992758 0,-3.313124 0.9466,-6.152944 2.3665,-8.992764 1.8932,-2.83982 3.7864,-4.733033 6.6262,-6.626246 2.8399,-1.419911 6.153,-1.893214 8.5196,-1.893214 z"
       fill="#e51937"
       id="path1696"
       style="fill:#e7eaf3;fill-opacity:1;stroke-width:4.73303" />
  </g>
</svg>
